# Blender v2.92.0 OBJ File: ''
# www.blender.org
mtllib chain.mtl
o Circle
v 0.000000 0.050000 -0.300000
v -0.173205 0.050000 -0.200000
v -0.173205 0.050000 0.200000
v 0.000000 0.050000 0.300000
v 0.173205 0.050000 0.200000
v 0.173205 0.050000 -0.200000
v 0.000000 0.050000 -0.211804
v -0.117366 0.050000 -0.141203
v -0.117365 0.050000 0.141203
v 0.000000 0.050000 0.211804
v 0.117366 0.050000 0.141203
v 0.117366 0.050000 -0.141203
v 0.000000 -0.050000 -0.300000
v -0.173205 -0.050000 -0.200000
v -0.173205 -0.050000 0.200000
v 0.000000 -0.050000 0.300000
v 0.173205 -0.050000 0.200000
v 0.173205 -0.050000 -0.200000
v 0.000000 -0.050000 -0.211804
v -0.117366 -0.050000 -0.141203
v -0.117365 -0.050000 0.141203
v 0.000000 -0.050000 0.211804
v 0.117366 -0.050000 0.141203
v 0.117366 -0.050000 -0.141203
vt 0.000000 0.000000
vt 0.000000 0.000000
vt 0.000000 0.000000
vt 0.000000 0.000000
vt 0.000000 0.000000
vt 0.000000 0.000000
vt 0.000000 0.000000
vt 0.000000 0.000000
vt 0.000000 0.000000
vt 0.000000 0.000000
vt 0.000000 0.000000
vt 0.000000 0.000000
vt 0.000000 0.000000
vt 0.000000 0.000000
vt 0.000000 0.000000
vt 0.000000 0.000000
vt 0.000000 0.000000
vt 0.000000 0.000000
vt 0.000000 0.000000
vt 0.000000 0.000000
vt 0.000000 0.000000
vt 0.000000 0.000000
vt 0.000000 0.000000
vt 0.000000 0.000000
vn 0.0000 1.0000 0.0000
vn 0.0000 -1.0000 0.0000
vn 0.5000 0.0000 -0.8660
vn -0.5000 0.0000 0.8660
vn -0.5155 0.0000 -0.8569
vn 0.5155 0.0000 0.8569
vn 0.5000 0.0000 0.8660
vn -1.0000 0.0000 0.0000
vn -0.5000 0.0000 -0.8660
vn 1.0000 0.0000 -0.0000
vn -0.5155 0.0000 0.8569
vn 0.5155 0.0000 -0.8569
usemtl None
s off
f 6/1/1 12/2/1 11/3/1 5/4/1
f 4/5/1 10/6/1 9/7/1 3/8/1
f 2/9/1 8/10/1 7/11/1 1/12/1
f 1/12/1 7/11/1 12/2/1 6/1/1
f 5/4/1 11/3/1 10/6/1 4/5/1
f 3/8/1 9/7/1 8/10/1 2/9/1
f 18/13/2 17/14/2 23/15/2 24/16/2
f 16/17/2 15/18/2 21/19/2 22/20/2
f 14/21/2 13/22/2 19/23/2 20/24/2
f 13/22/2 18/13/2 24/16/2 19/23/2
f 17/14/2 16/17/2 22/20/2 23/15/2
f 15/18/2 14/21/2 20/24/2 21/19/2
f 1/12/3 6/1/3 18/13/3 13/22/3
f 4/5/4 3/8/4 15/18/4 16/17/4
f 10/6/5 11/3/5 23/15/5 22/20/5
f 7/11/6 8/10/6 20/24/6 19/23/6
f 5/4/7 4/5/7 16/17/7 17/14/7
f 11/3/8 12/2/8 24/16/8 23/15/8
f 2/9/9 1/12/9 13/22/9 14/21/9
f 8/10/10 9/7/10 21/19/10 20/24/10
f 6/1/10 5/4/10 17/14/10 18/13/10
f 12/2/11 7/11/11 19/23/11 24/16/11
f 3/8/8 2/9/8 14/21/8 15/18/8
f 9/7/12 10/6/12 22/20/12 21/19/12
